<mxfile host="65bd71144e">
    <diagram id="wswKXhg2QOaiZVvUgI-G" name="Page-1">
        <mxGraphModel dx="1264" dy="1415" grid="1" gridSize="10" guides="1" tooltips="1" connect="1" arrows="1" fold="1" page="1" pageScale="1" pageWidth="850" pageHeight="1100" math="0" shadow="0">
            <root>
                <mxCell id="0"/>
                <mxCell id="1" parent="0"/>
                <mxCell id="3" value="" style="ellipse;whiteSpace=wrap;html=1;aspect=fixed;fillColor=#f0a30a;fontColor=#000000;strokeColor=#000000;" vertex="1" parent="1">
                    <mxGeometry x="20" y="30" width="240" height="240" as="geometry"/>
                </mxCell>
                <mxCell id="4" value="" style="ellipse;whiteSpace=wrap;html=1;aspect=fixed;fillColor=#e51400;fontColor=#ffffff;strokeColor=#000000;" vertex="1" parent="1">
                    <mxGeometry x="100" y="110" width="80" height="80" as="geometry"/>
                </mxCell>
                <mxCell id="5" value="π&amp;nbsp;× 1&amp;nbsp;× 1" style="text;html=1;strokeColor=none;fillColor=none;align=center;verticalAlign=middle;whiteSpace=wrap;rounded=0;fontSize=19;fontColor=#000000;" vertex="1" parent="1">
                    <mxGeometry x="85" y="135" width="110" height="30" as="geometry"/>
                </mxCell>
                <mxCell id="6" value="π&amp;nbsp;× 3 × 3 &lt;br&gt;- π × 1&amp;nbsp;× 1" style="text;html=1;strokeColor=none;fillColor=none;align=center;verticalAlign=middle;whiteSpace=wrap;rounded=0;fontSize=19;fontColor=#000000;" vertex="1" parent="1">
                    <mxGeometry x="80" y="55" width="120" height="30" as="geometry"/>
                </mxCell>
                <mxCell id="7" value="Bullseye is 1/9 of the circle's area" style="text;html=1;strokeColor=none;fillColor=none;align=center;verticalAlign=middle;whiteSpace=wrap;rounded=0;fontSize=23;fontColor=#000000;" vertex="1" parent="1">
                    <mxGeometry x="285" y="30" width="140" height="40" as="geometry"/>
                </mxCell>
                <mxCell id="8" value="P(random point in bullseye) = 1/9" style="text;html=1;strokeColor=none;fillColor=none;align=center;verticalAlign=middle;whiteSpace=wrap;rounded=0;fontSize=23;fontColor=#000000;" vertex="1" parent="1">
                    <mxGeometry x="260" y="135" width="220" height="30" as="geometry"/>
                </mxCell>
            </root>
        </mxGraphModel>
    </diagram>
</mxfile>